<svg
  display="none" 
  xmlns="http://www.w3.org/2000/svg">
  <symbol id="light" viewBox="0 0 24 24">
    <g>
      <path d="M18.0002 12.0002C18.0002 8.68654 15.3139 6.00024 12.0002 6.00024C8.68647 6.00024 6.00018 8.68654 6.00018 12.0002C6.00018 15.314 8.68647 18.0002 12.0002 18.0002C15.3139 18.0002 18.0002 15.314 18.0002 12.0002Z" stroke-width="2" stroke-linecap="round" stroke-linejoin="round"/>
      <path d="M12 2V1" stroke-width="2" stroke-linecap="round" stroke-linejoin="round"/>
      <path d="M2 12H1" stroke-width="2" stroke-linecap="round" stroke-linejoin="round"/>
      <path d="M22.9999 12H21.9999" stroke-width="2" stroke-linecap="round" stroke-linejoin="round"/>
      <path d="M19.9999 4L18.9999 5" stroke-width="2" stroke-linecap="round" stroke-linejoin="round"/>
      <path d="M4.00006 4L5.00006 5" stroke-width="2" stroke-linecap="round" stroke-linejoin="round"/>
      <path d="M19.9999 20L18.9999 19" stroke-width="2" stroke-linecap="round" stroke-linejoin="round"/>
      <path d="M4.00006 20L5.00006 19" stroke-width="2" stroke-linecap="round" stroke-linejoin="round"/>
      <path d="M12 23V22" stroke-width="2" stroke-linecap="round" stroke-linejoin="round"/>
    </g>
  </symbol>
    <symbol id="dark" viewBox="0 0 18 18">
    <g>
      <path d="M17.958 12.3251C18.162 11.8391 17.579 11.4251 17.09 11.6411C16.1124 12.0697 15.0564 12.2903 13.989 12.2891C9.804 12.2891 6.412 8.96506 6.412 4.86406C6.41157 3.47956 6.80487 2.12349 7.546 0.954059C7.83 0.506059 7.489 -0.113941 6.969 0.0180591C2.96 1.04106 0 4.61306 0 8.86206C0 13.9091 4.175 18.0001 9.326 18.0001C13.226 18.0001 16.566 15.6551 17.958 12.3251Z"/>
      <path d="M12.611 0.103038C12.081 -0.250962 11.449 0.381038 11.802 0.911038L12.432 1.85604C12.6878 2.2391 12.8244 2.6894 12.8244 3.15004C12.8244 3.61067 12.6878 4.06097 12.432 4.44404L11.802 5.38904C11.449 5.91904 12.082 6.55104 12.612 6.19704L13.556 5.56704C13.9391 5.31122 14.3894 5.17468 14.85 5.17468C15.3106 5.17468 15.7609 5.31122 16.144 5.56704L17.089 6.19704C17.619 6.55104 18.251 5.91904 17.897 5.38904L17.267 4.44404C17.0112 4.06097 16.8747 3.61067 16.8747 3.15004C16.8747 2.6894 17.0112 2.2391 17.267 1.85604L17.897 0.911038C18.251 0.381038 17.619 -0.250962 17.088 0.103038L16.144 0.733038C15.7609 0.988858 15.3106 1.12539 14.85 1.12539C14.3894 1.12539 13.9391 0.988858 13.556 0.733038L12.611 0.103038Z"/>
    </g>
  </symbol>
</svg>
